# xmcd
#
# Track frame offsets:
#	150
#	1298
#	21710
#	78941
#	89585
#	183694
#	199436
#	226582
#	242404
#	292120
#
# Disc length: 4499 seconds
#
# Revision: 1
# Processed by: cddbd v1.5.2PL0 Copyright (c) Steve Scherf et al.
# Submitted via: audiograbber 1.83.01
#
DISCID=8511910a
DTITLE=Grateful Dead - 72-09-28 Stanley Theatre, Jersey City NJ
DYEAR=1900
DGENRE=
TTITLE0=Tuning
TTITLE1=El Paso
TTITLE2=He's Gone
TTITLE3=Drums
TTITLE4=The Other One
TTITLE5=Jam
TTITLE6=Me and Bobby McGee
TTITLE7=The Other One
TTITLE8=Wharf Rat
TTITLE9=Sugar Magnolia
EXTD=
EXTT0=
EXTT1=
EXTT2=
EXTT3=
EXTT4=
EXTT5=
EXTT6=
EXTT7=
EXTT8=
EXTT9=
PLAYORDER=
